<svg width="172" height="68" viewBox="0 0 172 68" fill="none" xmlns="http://www.w3.org/2000/svg">
<g filter="url(#filter0_d_16_391)">
<rect x="6" y="6" width="160" height="56" fill="#87DE87"/>
</g>
<path d="M43.206 39.56C42.186 40.58 40.998 41.09 39.642 41.09C38.802 41.09 38.01 40.922 37.266 40.586C36.534 40.25 35.892 39.788 35.34 39.2C34.8 38.612 34.368 37.922 34.044 37.13C33.732 36.326 33.576 35.462 33.576 34.538C33.576 33.662 33.732 32.84 34.044 32.072C34.368 31.292 34.806 30.614 35.358 30.038C35.922 29.45 36.582 28.988 37.338 28.652C38.094 28.304 38.916 28.13 39.804 28.13C41.004 28.13 42.03 28.382 42.882 28.886C43.746 29.39 44.394 30.068 44.826 30.92L42.972 32.288C42.648 31.652 42.192 31.166 41.604 30.83C41.028 30.494 40.398 30.326 39.714 30.326C39.174 30.326 38.676 30.44 38.22 30.668C37.776 30.896 37.392 31.208 37.068 31.604C36.756 32 36.51 32.456 36.33 32.972C36.162 33.488 36.078 34.034 36.078 34.61C36.078 35.21 36.174 35.774 36.366 36.302C36.558 36.818 36.822 37.268 37.158 37.652C37.494 38.036 37.89 38.342 38.346 38.57C38.814 38.786 39.318 38.894 39.858 38.894C41.094 38.894 42.21 38.312 43.206 37.148V36.248H40.632V34.43H45.258V41H43.206V39.56ZM56.249 38.822V41H47.375V28.22H56.087V30.398H49.859V33.476H55.241V35.492H49.859V38.822H56.249ZM67.7435 30.398H63.6575V41H61.1915V30.398H57.1055V28.22H67.7435V30.398ZM73.1445 41V28.22H75.6285V41H73.1445ZM87.8529 30.398H83.7669V41H81.3009V30.398H77.2149V28.22H87.8529V30.398ZM95.7379 32.81V41H93.2539V28.22H95.1799L101.84 36.608V28.238H104.324V41H102.308L95.7379 32.81ZM112.436 41.09C111.5 41.09 110.648 40.91 109.88 40.55C109.124 40.178 108.47 39.692 107.918 39.092C107.378 38.48 106.958 37.784 106.658 37.004C106.358 36.224 106.208 35.426 106.208 34.61C106.208 33.758 106.364 32.942 106.676 32.162C107 31.382 107.438 30.692 107.99 30.092C108.554 29.492 109.22 29.018 109.988 28.67C110.756 28.31 111.59 28.13 112.49 28.13C113.414 28.13 114.254 28.322 115.01 28.706C115.778 29.078 116.432 29.57 116.972 30.182C117.512 30.794 117.932 31.49 118.232 32.27C118.532 33.05 118.682 33.842 118.682 34.646C118.682 35.498 118.526 36.314 118.214 37.094C117.902 37.862 117.47 38.546 116.918 39.146C116.366 39.734 115.706 40.208 114.938 40.568C114.17 40.916 113.336 41.09 112.436 41.09ZM108.728 34.61C108.728 35.162 108.812 35.696 108.98 36.212C109.148 36.728 109.388 37.184 109.7 37.58C110.024 37.976 110.414 38.294 110.87 38.534C111.338 38.774 111.866 38.894 112.454 38.894C113.054 38.894 113.582 38.774 114.038 38.534C114.506 38.282 114.896 37.952 115.208 37.544C115.532 37.136 115.772 36.68 115.928 36.176C116.096 35.66 116.18 35.138 116.18 34.61C116.18 34.058 116.09 33.524 115.91 33.008C115.742 32.492 115.496 32.036 115.172 31.64C114.86 31.244 114.47 30.932 114.002 30.704C113.546 30.464 113.03 30.344 112.454 30.344C111.854 30.344 111.32 30.47 110.852 30.722C110.384 30.962 109.994 31.286 109.682 31.694C109.37 32.09 109.13 32.546 108.962 33.062C108.806 33.566 108.728 34.082 108.728 34.61ZM124.523 28.256H126.809L128.249 32.486L129.689 28.256H131.993L129.815 34.07L131.435 38.156L135.053 28.22H137.753L132.551 41H130.463L128.249 35.636L126.035 41H123.947L118.781 28.22H121.445L125.081 38.156L126.665 34.07L124.523 28.256Z" fill="#333333"/>
<defs>
<filter id="filter0_d_16_391" x="0" y="0" width="172" height="68" filterUnits="userSpaceOnUse" color-interpolation-filters="sRGB">
<feFlood flood-opacity="0" result="BackgroundImageFix"/>
<feColorMatrix in="SourceAlpha" type="matrix" values="0 0 0 0 0 0 0 0 0 0 0 0 0 0 0 0 0 0 127 0" result="hardAlpha"/>
<feOffset/>
<feGaussianBlur stdDeviation="3"/>
<feColorMatrix type="matrix" values="0 0 0 0 0 0 0 0 0 0 0 0 0 0 0 0 0 0 0.25 0"/>
<feBlend mode="normal" in2="BackgroundImageFix" result="effect1_dropShadow_16_391"/>
<feBlend mode="normal" in="SourceGraphic" in2="effect1_dropShadow_16_391" result="shape"/>
</filter>
</defs>
</svg>
